# xmcd
#
# Track frame offsets: 
#        150
#        20425
#        47596
#        66809
#        85711
#        118362
#        138507
#        175730
#        196477
#        220957
#
# Disc length: 3261 seconds
#
# Revision: 0
# Processed by: cddbd v1.5.2PL0 Copyright (c) Steve Scherf et al.
# Submitted via: ExactAudioCopy v1.0b4
#
DISCID=8e0cbb0a
DTITLE=Delta Moon - Turn Around When Possible - Live Volume 2
DYEAR=2014
DGENRE=Blues
TTITLE0=Midnight Train
TTITLE1=Black Coffee
TTITLE2=The Wrong Side Of Town
TTITLE3=Get Gone
TTITLE4=Shake 'Em On Down
TTITLE5=Hard Times Killing Floor Blues
TTITLE6=Goin' Down South
TTITLE7=True Love Lies
TTITLE8=Nightclubbing
TTITLE9=That's It
EXTD=
EXTT0=
EXTT1=
EXTT2=
EXTT3=
EXTT4=
EXTT5=
EXTT6=
EXTT7=
EXTT8=
EXTT9=
PLAYORDER=
